<svg width="30" height="30" viewBox="0 0 30 30" fill="none" xmlns="http://www.w3.org/2000/svg">
<g clip-path="url(#clip0_86_104)">
<path d="M22.9549 7.04505C23.1308 7.22086 23.2295 7.45932 23.2295 7.70796C23.2295 7.9566 23.1308 8.19506 22.9549 8.37087L16.3258 15L22.9549 21.6291C23.1308 21.8049 23.2295 22.0434 23.2295 22.292C23.2295 22.5407 23.1308 22.7791 22.9549 22.955C22.7791 23.1308 22.5407 23.2295 22.292 23.2295C22.0434 23.2295 21.8049 23.1308 21.6291 22.955L15 16.3258L8.37086 22.955C8.19505 23.1308 7.95659 23.2295 7.70795 23.2295C7.45931 23.2295 7.22085 23.1308 7.04504 22.955C6.86922 22.7791 6.77045 22.5407 6.77045 22.292C6.77045 22.0434 6.86922 21.8049 7.04504 21.6291L13.6742 15L7.04504 8.37087C6.86922 8.19506 6.77045 7.9566 6.77045 7.70796C6.77045 7.45932 6.86922 7.22086 7.04504 7.04505C7.22085 6.86923 7.45931 6.77046 7.70795 6.77046C7.95659 6.77046 8.19505 6.86923 8.37086 7.04505L15 13.6742L21.6291 7.04505C21.8049 6.86923 22.0434 6.77046 22.292 6.77046C22.5407 6.77046 22.7791 6.86923 22.9549 7.04505Z" fill="white"/>
</g>
<defs>
<clipPath id="clip0_86_104">
<rect width="30" height="30" fill="white"/>
</clipPath>
</defs>
</svg>
