<svg width="48" height="49" viewBox="0 0 48 49" fill="none" xmlns="http://www.w3.org/2000/svg">
<circle cx="24" cy="24.5" r="23.7273" stroke="#F1F5F7" stroke-opacity="0.1" stroke-width="0.545455"/>
<path d="M27.5562 27.0477L27.1007 27.5272C27.1007 27.5272 26.0181 28.667 23.0631 25.5559C20.1081 22.4448 21.1907 21.3051 21.1907 21.3051L21.4775 21.0031C22.1841 20.2592 22.2507 19.065 21.6342 18.1931L20.3733 16.4096C19.6103 15.3305 18.136 15.1879 17.2615 16.1086L15.6918 17.7611C15.2582 18.2177 14.9677 18.8095 15.0029 19.4659C15.093 21.1455 15.8107 24.759 19.8154 28.9752C24.0621 33.4462 28.0468 33.6239 29.6763 33.4631C30.1917 33.4122 30.6399 33.1343 31.0011 32.754L32.4217 31.2584C33.3806 30.2489 33.1102 28.5182 31.8833 27.812L29.9728 26.7123C29.1672 26.2486 28.1858 26.3848 27.5562 27.0477Z" fill="#154BA6"/>
<path d="M27.5562 27.0477L27.1007 27.5272C27.1007 27.5272 26.0181 28.667 23.0631 25.5559C20.1081 22.4448 21.1907 21.3051 21.1907 21.3051L21.4775 21.0031C22.1841 20.2592 22.2507 19.065 21.6342 18.1931L20.3733 16.4096C19.6103 15.3305 18.136 15.1879 17.2615 16.1086L15.6918 17.7611C15.2582 18.2177 14.9677 18.8095 15.0029 19.4659C15.093 21.1455 15.8107 24.759 19.8154 28.9752C24.0621 33.4462 28.0468 33.6239 29.6763 33.4631C30.1917 33.4122 30.6399 33.1343 31.0011 32.754L32.4217 31.2584C33.3806 30.2489 33.1102 28.5182 31.8833 27.812L29.9728 26.7123C29.1672 26.2486 28.1858 26.3848 27.5562 27.0477Z" fill="url(#paint0_linear_84_1791)"/>
<path d="M25.2595 14.3801C25.3257 13.9712 25.7122 13.6938 26.1211 13.76C26.1464 13.7649 26.2279 13.7801 26.2705 13.7896C26.3559 13.8086 26.4749 13.8378 26.6233 13.8811C26.9201 13.9675 27.3347 14.1099 27.8323 14.338C28.8286 14.7948 30.1544 15.5938 31.5302 16.9696C32.906 18.3454 33.705 19.6712 34.1617 20.6675C34.3899 21.1651 34.5323 21.5797 34.6187 21.8765C34.6619 22.0249 34.6912 22.1439 34.7102 22.2293C34.7197 22.2719 34.7267 22.3062 34.7315 22.3315L34.7373 22.3627C34.8034 22.7716 34.5286 23.1741 34.1197 23.2403C33.712 23.3063 33.3279 23.0303 33.2601 22.6233C33.258 22.6124 33.2522 22.583 33.2461 22.5553C33.2337 22.4999 33.2124 22.4121 33.1786 22.296C33.1109 22.0636 32.9934 21.7183 32.7982 21.2926C32.4084 20.4423 31.7074 19.2681 30.4695 18.0303C29.2317 16.7924 28.0575 16.0914 27.2072 15.7016C26.7815 15.5064 26.4362 15.3889 26.2038 15.3212C26.0877 15.2874 25.9417 15.2539 25.8863 15.2415C25.4793 15.1737 25.1935 14.7878 25.2595 14.3801Z" fill="#154BA6"/>
<path d="M25.2595 14.3801C25.3257 13.9712 25.7122 13.6938 26.1211 13.76C26.1464 13.7649 26.2279 13.7801 26.2705 13.7896C26.3559 13.8086 26.4749 13.8378 26.6233 13.8811C26.9201 13.9675 27.3347 14.1099 27.8323 14.338C28.8286 14.7948 30.1544 15.5938 31.5302 16.9696C32.906 18.3454 33.705 19.6712 34.1617 20.6675C34.3899 21.1651 34.5323 21.5797 34.6187 21.8765C34.6619 22.0249 34.6912 22.1439 34.7102 22.2293C34.7197 22.2719 34.7267 22.3062 34.7315 22.3315L34.7373 22.3627C34.8034 22.7716 34.5286 23.1741 34.1197 23.2403C33.712 23.3063 33.3279 23.0303 33.2601 22.6233C33.258 22.6124 33.2522 22.583 33.2461 22.5553C33.2337 22.4999 33.2124 22.4121 33.1786 22.296C33.1109 22.0636 32.9934 21.7183 32.7982 21.2926C32.4084 20.4423 31.7074 19.2681 30.4695 18.0303C29.2317 16.7924 28.0575 16.0914 27.2072 15.7016C26.7815 15.5064 26.4362 15.3889 26.2038 15.3212C26.0877 15.2874 25.9417 15.2539 25.8863 15.2415C25.4793 15.1737 25.1935 14.7878 25.2595 14.3801Z" fill="url(#paint1_linear_84_1791)"/>
<path fill-rule="evenodd" clip-rule="evenodd" d="M25.4857 17.8295C25.5995 17.4313 26.0146 17.2006 26.4129 17.3144L26.2069 18.0356C26.4129 17.3144 26.4129 17.3144 26.4129 17.3144L26.4144 17.3149L26.4159 17.3153L26.4192 17.3163L26.427 17.3186L26.4468 17.3247C26.4618 17.3296 26.4807 17.3358 26.5031 17.3438C26.548 17.3598 26.6074 17.3824 26.6802 17.4136C26.8259 17.4761 27.0249 17.5725 27.2695 17.7172C27.7589 18.0069 28.4271 18.488 29.2121 19.273C29.9971 20.058 30.4782 20.7262 30.7679 21.2156C30.9126 21.4602 31.009 21.6592 31.0715 21.8049C31.1027 21.8777 31.1254 21.9371 31.1413 21.982C31.1493 22.0044 31.1555 22.0233 31.1604 22.0383L31.1665 22.0581L31.1688 22.0659L31.1698 22.0692L31.1702 22.0707C31.1702 22.0707 31.1707 22.0722 30.4495 22.2782L31.1707 22.0722C31.2845 22.4705 31.0538 22.8856 30.6556 22.9994C30.2607 23.1122 29.8492 22.8864 29.7313 22.4944L29.7276 22.4836C29.7223 22.4686 29.7113 22.439 29.6928 22.3958C29.6558 22.3094 29.5887 22.1682 29.4771 21.9796C29.2541 21.6029 28.8514 21.0336 28.1514 20.3337C27.4515 19.6337 26.8822 19.231 26.5055 19.0081C26.3169 18.8964 26.1757 18.8293 26.0893 18.7923C26.0461 18.7738 26.0165 18.7628 26.0015 18.7575L25.9907 18.7538C25.5987 18.6359 25.3729 18.2244 25.4857 17.8295Z" fill="#154BA6"/>
<path fill-rule="evenodd" clip-rule="evenodd" d="M25.4857 17.8295C25.5995 17.4313 26.0146 17.2006 26.4129 17.3144L26.2069 18.0356C26.4129 17.3144 26.4129 17.3144 26.4129 17.3144L26.4144 17.3149L26.4159 17.3153L26.4192 17.3163L26.427 17.3186L26.4468 17.3247C26.4618 17.3296 26.4807 17.3358 26.5031 17.3438C26.548 17.3598 26.6074 17.3824 26.6802 17.4136C26.8259 17.4761 27.0249 17.5725 27.2695 17.7172C27.7589 18.0069 28.4271 18.488 29.2121 19.273C29.9971 20.058 30.4782 20.7262 30.7679 21.2156C30.9126 21.4602 31.009 21.6592 31.0715 21.8049C31.1027 21.8777 31.1254 21.9371 31.1413 21.982C31.1493 22.0044 31.1555 22.0233 31.1604 22.0383L31.1665 22.0581L31.1688 22.0659L31.1698 22.0692L31.1702 22.0707C31.1702 22.0707 31.1707 22.0722 30.4495 22.2782L31.1707 22.0722C31.2845 22.4705 31.0538 22.8856 30.6556 22.9994C30.2607 23.1122 29.8492 22.8864 29.7313 22.4944L29.7276 22.4836C29.7223 22.4686 29.7113 22.439 29.6928 22.3958C29.6558 22.3094 29.5887 22.1682 29.4771 21.9796C29.2541 21.6029 28.8514 21.0336 28.1514 20.3337C27.4515 19.6337 26.8822 19.231 26.5055 19.0081C26.3169 18.8964 26.1757 18.8293 26.0893 18.7923C26.0461 18.7738 26.0165 18.7628 26.0015 18.7575L25.9907 18.7538C25.5987 18.6359 25.3729 18.2244 25.4857 17.8295Z" fill="url(#paint2_linear_84_1791)"/>
<defs>
<linearGradient id="paint0_linear_84_1791" x1="13.5286" y1="9.22861" x2="36.3465" y2="33.7676" gradientUnits="userSpaceOnUse">
<stop stop-color="#3F9CFB"/>
<stop stop-color="#1B89FA" stop-opacity="0.65"/>
<stop offset="0.569885" stop-color="#007EFF"/>
<stop offset="0.849257" stop-color="#4EA5FF" stop-opacity="0.59"/>
</linearGradient>
<linearGradient id="paint1_linear_84_1791" x1="24.4737" y1="10.4404" x2="36.5164" y2="23.3878" gradientUnits="userSpaceOnUse">
<stop stop-color="#3F9CFB"/>
<stop stop-color="#1B89FA" stop-opacity="0.65"/>
<stop offset="0.569885" stop-color="#007EFF"/>
<stop offset="0.849257" stop-color="#4EA5FF" stop-opacity="0.59"/>
</linearGradient>
<linearGradient id="paint2_linear_84_1791" x1="24.4737" y1="10.4404" x2="36.5164" y2="23.3878" gradientUnits="userSpaceOnUse">
<stop stop-color="#3F9CFB"/>
<stop stop-color="#1B89FA" stop-opacity="0.65"/>
<stop offset="0.569885" stop-color="#007EFF"/>
<stop offset="0.849257" stop-color="#4EA5FF" stop-opacity="0.59"/>
</linearGradient>
</defs>
</svg>
