<svg width="17" height="16" viewBox="0 0 17 16" fill="none" xmlns="http://www.w3.org/2000/svg">
<path fill-rule="evenodd" clip-rule="evenodd" d="M1.3791 4.31381C1.57396 4.11814 1.89054 4.11748 2.08621 4.31233L4.69866 6.91385C5.04118 7.25494 5.26325 7.47459 5.44819 7.61516C5.62159 7.74695 5.70268 7.76169 5.75639 7.76171C5.81011 7.76173 5.89121 7.74704 6.0647 7.61538C6.24974 7.47495 6.47198 7.25546 6.81475 6.91462L6.99758 6.73282C7.31014 6.42199 7.57955 6.15407 7.82422 5.96836C8.08651 5.76929 8.37794 5.61868 8.73674 5.61864C9.09554 5.6186 9.38701 5.76914 9.64934 5.96815C9.89406 6.1538 10.1635 6.42167 10.4762 6.73243L14.5667 10.7981V8.30274C14.5667 8.02659 14.7906 7.80274 15.0667 7.80274C15.3429 7.80274 15.5667 8.02659 15.5667 8.30274V12C15.5667 12.2761 15.3429 12.5 15.0667 12.5H11.3453C11.0692 12.5 10.8453 12.2761 10.8453 12C10.8453 11.7238 11.0692 11.5 11.3453 11.5H13.8544L9.79449 7.46481C9.45194 7.12435 9.22986 6.90512 9.04495 6.76484C8.8716 6.63333 8.79055 6.61863 8.73686 6.61864C8.68317 6.61865 8.60212 6.63336 8.4288 6.76491C8.24392 6.90523 8.02189 7.12452 7.67942 7.46506L7.49658 7.64688C7.18373 7.95799 6.9141 8.22613 6.66923 8.41196C6.40675 8.61116 6.11509 8.76185 5.75603 8.76171C5.39697 8.76158 5.10541 8.61069 4.84308 8.4113C4.59834 8.22528 4.32891 7.95694 4.01629 7.6456C4.00856 7.6379 4.00081 7.63018 3.99303 7.62244L1.38059 5.02092C1.18492 4.82607 1.18425 4.50949 1.3791 4.31381Z" fill="#E00909"/>
</svg>
