<svg width="14" height="14" viewBox="0 0 14 14" fill="none" xmlns="http://www.w3.org/2000/svg">
<path d="M1.91019 8.92245C1.4144 8.27834 1.1665 7.95628 1.1665 6.99998C1.1665 6.04368 1.4144 5.72162 1.91019 5.07751C2.90015 3.79139 4.5604 2.33331 6.99984 2.33331C9.43927 2.33331 11.0995 3.79139 12.0895 5.07751C12.5853 5.72162 12.8332 6.04368 12.8332 6.99998C12.8332 7.95628 12.5853 8.27834 12.0895 8.92245C11.0995 10.2086 9.43927 11.6666 6.99984 11.6666C4.5604 11.6666 2.90015 10.2086 1.91019 8.92245Z" stroke="url(#paint0_linear_16_1564)" stroke-width="0.875"/>
<path d="M8.75 7C8.75 7.9665 7.9665 8.75 7 8.75C6.0335 8.75 5.25 7.9665 5.25 7C5.25 6.0335 6.0335 5.25 7 5.25C7.9665 5.25 8.75 6.0335 8.75 7Z" stroke="url(#paint1_linear_16_1564)" stroke-width="0.875"/>
<defs>
<linearGradient id="paint0_linear_16_1564" x1="0.2128" y1="-0.918521" x2="11.5747" y2="14.3551" gradientUnits="userSpaceOnUse">
<stop stop-color="#3F9CFB"/>
<stop stop-color="#1B89FA" stop-opacity="0.65"/>
<stop offset="0.569885" stop-color="#007EFF"/>
<stop offset="0.849257" stop-color="#4EA5FF" stop-opacity="0.59"/>
</linearGradient>
<linearGradient id="paint1_linear_16_1564" x1="4.96389" y1="4.03056" x2="9.40071" y2="8.80202" gradientUnits="userSpaceOnUse">
<stop stop-color="#3F9CFB"/>
<stop stop-color="#1B89FA" stop-opacity="0.65"/>
<stop offset="0.569885" stop-color="#007EFF"/>
<stop offset="0.849257" stop-color="#4EA5FF" stop-opacity="0.59"/>
</linearGradient>
</defs>
</svg>
