<svg width="64" height="65" viewBox="0 0 64 65" fill="none" xmlns="http://www.w3.org/2000/svg">
<rect y="0.5" width="64" height="64" rx="32" fill="white"/>
<circle cx="32" cy="32.5" r="31.5" fill="#161B22" stroke="#30363D"/>
<path d="M36.5 26.5H33.5C32.9477 26.5 32.5 26.9477 32.5 27.5V30.5H36.5C36.6137 30.4975 36.7216 30.5504 36.7892 30.6419C36.8568 30.7334 36.8758 30.852 36.84 30.96L36.1 33.16C36.0318 33.3619 35.8431 33.4984 35.63 33.5H32.5V41C32.5 41.2761 32.2761 41.5 32 41.5H29.5C29.2239 41.5 29 41.2761 29 41V33.5H27.5C27.2239 33.5 27 33.2761 27 33V31C27 30.7239 27.2239 30.5 27.5 30.5H29V27.5C29 25.2909 30.7909 23.5 33 23.5H36.5C36.7761 23.5 37 23.7239 37 24V26C37 26.2761 36.7761 26.5 36.5 26.5Z" fill="white"/>
</svg>
