<svg width="18" height="18" viewBox="0 0 18 18" fill="none" xmlns="http://www.w3.org/2000/svg">
<g clip-path="url(#clip0_84_1258)">
<path d="M17.0065 -0.000976562H0.993541C0.733179 0.0226962 0.491602 0.144624 0.317913 0.340024C0.144225 0.535423 0.0514606 0.78963 0.0584763 1.05097V16.9471C0.0514606 17.2084 0.144225 17.4626 0.317913 17.658C0.491602 17.8534 0.733179 17.9754 0.993541 17.999H9.52601V10.986H7.18835V8.29772H9.52601V6.31071C9.44963 5.44604 9.71141 4.58542 10.2563 3.90973C10.8012 3.23403 11.5869 2.79588 12.4481 2.68734H13.0325C13.7358 2.66797 14.4395 2.70707 15.1364 2.80422V5.25876H13.6169C12.4481 5.25876 12.3312 5.84318 12.3312 6.54448V8.29772H15.0195L14.6689 10.986H12.3312V17.8821H16.8896C17.151 17.8892 17.4052 17.7964 17.6006 17.6227C17.796 17.449 17.9179 17.2074 17.9416 16.9471V0.934088C17.9252 0.691497 17.8214 0.463076 17.6495 0.291146C17.4775 0.119217 17.2491 0.0154327 17.0065 -0.000976562Z" fill="#88888C"/>
</g>
<defs>
<clipPath id="clip0_84_1258">
<rect width="17.8831" height="18" fill="white" transform="translate(0.0581055 -0.000976562)"/>
</clipPath>
</defs>
</svg>
