<svg width="21" height="20" viewBox="0 0 21 20" fill="none" xmlns="http://www.w3.org/2000/svg">
<g clip-path="url(#clip0_84_1270)">
<path d="M10.0601 -0.000976562C4.53506 -0.000976562 0.0600586 4.47402 0.0600586 9.99902C0.0600586 14.424 2.92256 18.1615 6.89756 19.4865C7.39756 19.574 7.58506 19.274 7.58506 19.0115C7.58506 18.774 7.57256 17.9865 7.57256 17.149C5.06006 17.6115 4.41006 16.5365 4.21006 15.974C4.09756 15.6865 3.61006 14.799 3.18506 14.5615C2.83506 14.374 2.33506 13.9115 3.17256 13.899C3.96006 13.8865 4.52256 14.624 4.71006 14.924C5.61006 16.4365 7.04756 16.0115 7.62256 15.749C7.71006 15.099 7.97256 14.6615 8.26006 14.4115C6.03506 14.1615 3.71006 13.299 3.71006 9.47402C3.71006 8.38652 4.09756 7.48652 4.73506 6.78652C4.63506 6.53652 4.28506 5.51152 4.83506 4.13652C4.83506 4.13652 5.67256 3.87402 7.58506 5.16152C8.38506 4.93652 9.23506 4.82402 10.0851 4.82402C10.9351 4.82402 11.7851 4.93652 12.5851 5.16152C14.4976 3.86152 15.3351 4.13652 15.3351 4.13652C15.8851 5.51152 15.5351 6.53652 15.4351 6.78652C16.0726 7.48652 16.4601 8.37402 16.4601 9.47402C16.4601 13.3115 14.1226 14.1615 11.8976 14.4115C12.2601 14.724 12.5726 15.324 12.5726 16.2615C12.5726 17.599 12.5601 18.674 12.5601 19.0115C12.5601 19.274 12.7476 19.5865 13.2476 19.4865C15.2327 18.8163 16.9578 17.5405 18.1799 15.8386C19.4019 14.1366 20.0595 12.0943 20.0601 9.99902C20.0601 4.47402 15.5851 -0.000976562 10.0601 -0.000976562Z" fill="#88888C"/>
</g>
<defs>
<clipPath id="clip0_84_1270">
<rect width="20" height="20" fill="white" transform="translate(0.0600586 -0.000976562)"/>
</clipPath>
</defs>
</svg>
