<svg width="20" height="20" viewBox="0 0 20 20" fill="none" xmlns="http://www.w3.org/2000/svg">
<path d="M1.97008 10.7983C1.65388 8.60076 1.49577 7.50199 1.94616 6.56254C2.39654 5.62308 3.35518 5.05203 5.27245 3.90992L6.42648 3.22247C8.16756 2.18532 9.03809 1.66675 10 1.66675C10.9619 1.66675 11.8325 2.18532 13.5736 3.22247L14.7276 3.90992C16.6449 5.05203 17.6035 5.62308 18.0539 6.56254C18.5043 7.50199 18.3462 8.60076 18.03 10.7983L17.7977 12.4128C17.3915 15.2356 17.1884 16.6471 16.2092 17.4902C15.2299 18.3334 13.7939 18.3334 10.9217 18.3334H9.07829C6.20616 18.3334 4.7701 18.3334 3.79088 17.4902C2.81166 16.6471 2.60857 15.2356 2.20239 12.4128L1.97008 10.7983Z" stroke="#666D81"/>
<path d="M10 12.5L10 15" stroke="#666D81" stroke-linecap="round"/>
</svg>
