<svg width="24" height="28" viewBox="0 0 24 28" fill="none" xmlns="http://www.w3.org/2000/svg">
<path fill-rule="evenodd" clip-rule="evenodd" d="M0 11.889C0 7.62551 0 5.49379 0.503354 4.77663C1.00671 4.05947 3.0111 3.37336 7.01988 2.00114L7.78363 1.7397C9.87331 1.0244 10.9181 0.666748 12 0.666748C13.0819 0.666748 14.1267 1.0244 16.2164 1.7397L16.9801 2.00114C20.9889 3.37336 22.9933 4.05947 23.4966 4.77663C24 5.49379 24 7.62551 24 11.889V13.9886C24 21.506 18.348 25.1541 14.8019 26.7031C13.84 27.1233 13.359 27.3334 12 27.3334C10.641 27.3334 10.16 27.1233 9.19808 26.7031C5.65195 25.1541 0 21.506 0 13.9886V11.889ZM14.6667 10.0001C14.6667 11.4728 13.4728 12.6667 12 12.6667C10.5272 12.6667 9.33333 11.4728 9.33333 10.0001C9.33333 8.52732 10.5272 7.33341 12 7.33341C13.4728 7.33341 14.6667 8.52732 14.6667 10.0001ZM12 20.6667C17.3333 20.6667 17.3333 19.4728 17.3333 18.0001C17.3333 16.5273 14.9455 15.3334 12 15.3334C9.05448 15.3334 6.66667 16.5273 6.66667 18.0001C6.66667 19.4728 6.66667 20.6667 12 20.6667Z" fill="#1B52BC"/>
<path fill-rule="evenodd" clip-rule="evenodd" d="M0 11.889C0 7.62551 0 5.49379 0.503354 4.77663C1.00671 4.05947 3.0111 3.37336 7.01988 2.00114L7.78363 1.7397C9.87331 1.0244 10.9181 0.666748 12 0.666748C13.0819 0.666748 14.1267 1.0244 16.2164 1.7397L16.9801 2.00114C20.9889 3.37336 22.9933 4.05947 23.4966 4.77663C24 5.49379 24 7.62551 24 11.889V13.9886C24 21.506 18.348 25.1541 14.8019 26.7031C13.84 27.1233 13.359 27.3334 12 27.3334C10.641 27.3334 10.16 27.1233 9.19808 26.7031C5.65195 25.1541 0 21.506 0 13.9886V11.889ZM14.6667 10.0001C14.6667 11.4728 13.4728 12.6667 12 12.6667C10.5272 12.6667 9.33333 11.4728 9.33333 10.0001C9.33333 8.52732 10.5272 7.33341 12 7.33341C13.4728 7.33341 14.6667 8.52732 14.6667 10.0001ZM12 20.6667C17.3333 20.6667 17.3333 19.4728 17.3333 18.0001C17.3333 16.5273 14.9455 15.3334 12 15.3334C9.05448 15.3334 6.66667 16.5273 6.66667 18.0001C6.66667 19.4728 6.66667 20.6667 12 20.6667Z" fill="url(#paint0_linear_63_26)"/>
<defs>
<linearGradient id="paint0_linear_63_26" x1="-1.9619" y1="-8.6242" x2="31.9138" y2="24.1635" gradientUnits="userSpaceOnUse">
<stop stop-color="#3F9CFB"/>
<stop stop-color="#1B89FA" stop-opacity="0.65"/>
<stop offset="0.569885" stop-color="#007EFF"/>
<stop offset="0.849257" stop-color="#4EA5FF" stop-opacity="0.59"/>
</linearGradient>
</defs>
</svg>
