<svg width="25" height="24" viewBox="0 0 25 24" fill="none" xmlns="http://www.w3.org/2000/svg">
<path d="M17.0748 15.2083L16.4675 15.8121C16.4675 15.8121 15.0241 17.2474 11.0841 13.3297C7.14407 9.4121 8.58752 7.97684 8.58752 7.97684L8.96994 7.59659C9.91202 6.65987 10.0008 5.15596 9.17891 4.05806L7.49759 1.81219C6.4803 0.453303 4.51453 0.273795 3.34852 1.43319L1.25572 3.5141C0.677557 4.08898 0.290121 4.8342 0.337102 5.66089C0.457299 7.77584 1.41421 12.3263 6.75373 17.6355C12.4161 23.2657 17.729 23.4895 19.9016 23.2869C20.5888 23.2229 21.1865 22.8729 21.6681 22.394L23.5621 20.5107C24.8407 19.2394 24.4802 17.06 22.8444 16.1707L20.297 14.786C19.2229 14.2021 17.9143 14.3736 17.0748 15.2083Z" fill="#1B52BC"/>
<path d="M17.0748 15.2083L16.4675 15.8121C16.4675 15.8121 15.0241 17.2474 11.0841 13.3297C7.14407 9.4121 8.58752 7.97684 8.58752 7.97684L8.96994 7.59659C9.91202 6.65987 10.0008 5.15596 9.17891 4.05806L7.49759 1.81219C6.4803 0.453303 4.51453 0.273795 3.34852 1.43319L1.25572 3.5141C0.677557 4.08898 0.290121 4.8342 0.337102 5.66089C0.457299 7.77584 1.41421 12.3263 6.75373 17.6355C12.4161 23.2657 17.729 23.4895 19.9016 23.2869C20.5888 23.2229 21.1865 22.8729 21.6681 22.394L23.5621 20.5107C24.8407 19.2394 24.4802 17.06 22.8444 16.1707L20.297 14.786C19.2229 14.2021 17.9143 14.3736 17.0748 15.2083Z" fill="url(#paint0_linear_63_46)"/>
<defs>
<linearGradient id="paint0_linear_63_46" x1="-1.62865" y1="-7.23056" x2="26.9397" y2="25.2998" gradientUnits="userSpaceOnUse">
<stop stop-color="#3F9CFB"/>
<stop stop-color="#1B89FA" stop-opacity="0.65"/>
<stop offset="0.569885" stop-color="#007EFF"/>
<stop offset="0.849257" stop-color="#4EA5FF" stop-opacity="0.59"/>
</linearGradient>
</defs>
</svg>
