<svg width="22" height="28" viewBox="0 0 22 28" fill="none" xmlns="http://www.w3.org/2000/svg">
<path fill-rule="evenodd" clip-rule="evenodd" d="M10.9999 0.666748C5.10888 0.666748 0.333252 6.00353 0.333252 12.0001C0.333252 17.9496 3.73768 24.4166 9.04934 26.8993C10.2876 27.4781 11.7123 27.4781 12.9505 26.8993C18.2622 24.4166 21.6666 17.9496 21.6666 12.0001C21.6666 6.00353 16.891 0.666748 10.9999 0.666748ZM10.9999 14.0001C12.4727 14.0001 13.6666 12.8062 13.6666 11.3334C13.6666 9.86066 12.4727 8.66675 10.9999 8.66675C9.52716 8.66675 8.33325 9.86066 8.33325 11.3334C8.33325 12.8062 9.52716 14.0001 10.9999 14.0001Z" fill="#1B52BC"/>
<path fill-rule="evenodd" clip-rule="evenodd" d="M10.9999 0.666748C5.10888 0.666748 0.333252 6.00353 0.333252 12.0001C0.333252 17.9496 3.73768 24.4166 9.04934 26.8993C10.2876 27.4781 11.7123 27.4781 12.9505 26.8993C18.2622 24.4166 21.6666 17.9496 21.6666 12.0001C21.6666 6.00353 16.891 0.666748 10.9999 0.666748ZM10.9999 14.0001C12.4727 14.0001 13.6666 12.8062 13.6666 11.3334C13.6666 9.86066 12.4727 8.66675 10.9999 8.66675C9.52716 8.66675 8.33325 9.86066 8.33325 11.3334C8.33325 12.8062 9.52716 14.0001 10.9999 14.0001Z" fill="url(#paint0_linear_63_41)"/>
<defs>
<linearGradient id="paint0_linear_63_41" x1="-1.41066" y1="-8.6242" x2="32.1032" y2="20.2091" gradientUnits="userSpaceOnUse">
<stop stop-color="#3F9CFB"/>
<stop stop-color="#1B89FA" stop-opacity="0.65"/>
<stop offset="0.569885" stop-color="#007EFF"/>
<stop offset="0.849257" stop-color="#4EA5FF" stop-opacity="0.59"/>
</linearGradient>
</defs>
</svg>
