<svg width="17" height="16" viewBox="0 0 17 16" fill="none" xmlns="http://www.w3.org/2000/svg">
<path fill-rule="evenodd" clip-rule="evenodd" d="M10.8453 4.66663C10.8453 4.39048 11.0692 4.16663 11.3453 4.16663H15.0667C15.3429 4.16663 15.5667 4.39048 15.5667 4.66663V8.36385C15.5667 8.63999 15.3429 8.86385 15.0667 8.86385C14.7906 8.86385 14.5667 8.63999 14.5667 8.36385V5.86853L10.4762 9.93416C10.1635 10.2449 9.89406 10.5128 9.64934 10.6984C9.38701 10.8974 9.09554 11.048 8.73674 11.0479C8.37794 11.0479 8.08651 10.8973 7.82422 10.6982C7.57955 10.5125 7.31015 10.2446 6.99759 9.93377L6.81475 9.75196C6.47198 9.41113 6.24974 9.19164 6.0647 9.0512C5.89121 8.91954 5.81011 8.90485 5.75639 8.90487C5.70268 8.90489 5.62159 8.91964 5.44819 9.05143C5.26325 9.192 5.04118 9.41165 4.69866 9.75274L2.08621 12.3543C1.89054 12.5491 1.57396 12.5484 1.3791 12.3528C1.18425 12.1571 1.18492 11.8405 1.38059 11.6457L4.01629 9.02099C4.32891 8.70965 4.59834 8.4413 4.84308 8.25529C5.10541 8.0559 5.39697 7.905 5.75603 7.90487C6.11509 7.90474 6.40675 8.05542 6.66923 8.25462C6.9141 8.44046 7.18373 8.7086 7.49658 9.01971L7.67942 9.20153C8.02189 9.54207 8.24392 9.76135 8.4288 9.90167C8.60212 10.0332 8.68317 10.0479 8.73686 10.0479C8.79055 10.048 8.8716 10.0333 9.04495 9.90174C9.22986 9.76147 9.45194 9.54223 9.79449 9.20177L13.8544 5.16663H11.3453C11.0692 5.16663 10.8453 4.94277 10.8453 4.66663Z" fill="#09E011"/>
</svg>
