<svg width="64" height="65" viewBox="0 0 64 65" fill="none" xmlns="http://www.w3.org/2000/svg">
<rect y="0.5" width="64" height="64" rx="32" fill="white"/>
<circle cx="32" cy="32.5" r="31.5" fill="#161B22" stroke="#30363D"/>
<path fill-rule="evenodd" clip-rule="evenodd" d="M36 23.5H28C25.2386 23.5 23 25.7386 23 28.5V36.5C23 39.2614 25.2386 41.5 28 41.5H36C38.7614 41.5 41 39.2614 41 36.5V28.5C41 25.7386 38.7614 23.5 36 23.5ZM39.2501 36.5C39.2446 38.2926 37.7927 39.7445 36.0001 39.75H28.0001C26.2074 39.7445 24.7556 38.2926 24.7501 36.5V28.5C24.7556 26.7073 26.2074 25.2555 28.0001 25.25H36.0001C37.7927 25.2555 39.2446 26.7073 39.2501 28.5V36.5ZM36.75 28.75C37.3023 28.75 37.75 28.3022 37.75 27.75C37.75 27.1977 37.3023 26.75 36.75 26.75C36.1977 26.75 35.75 27.1977 35.75 27.75C35.75 28.3022 36.1977 28.75 36.75 28.75ZM32 28C29.5147 28 27.5 30.0147 27.5 32.5C27.5 34.9853 29.5147 37 32 37C34.4853 37 36.5 34.9853 36.5 32.5C36.5027 31.3057 36.0294 30.1596 35.1849 29.3151C34.3404 28.4706 33.1943 27.9973 32 28ZM29.2501 32.5C29.2501 34.0187 30.4813 35.25 32.0001 35.25C33.5189 35.25 34.7501 34.0187 34.7501 32.5C34.7501 30.9812 33.5189 29.75 32.0001 29.75C30.4813 29.75 29.2501 30.9812 29.2501 32.5Z" fill="white"/>
</svg>
