<svg width="20" height="18" viewBox="0 0 20 18" fill="none" xmlns="http://www.w3.org/2000/svg">
<g clip-path="url(#clip0_84_1263)">
<path d="M4.96997 1.99944C4.96979 2.39752 4.85082 2.78649 4.62829 3.11656C4.40576 3.44663 4.08979 3.70279 3.72083 3.85224C3.35187 4.00169 2.9467 4.03763 2.5572 3.95548C2.16769 3.87332 1.81155 3.67679 1.53439 3.39105C1.25722 3.10531 1.07163 2.74336 1.00137 2.35153C0.93111 1.9597 0.979377 1.55582 1.13999 1.19158C1.30061 0.82734 1.56627 0.519318 1.90296 0.306941C2.23966 0.0945635 2.63207 -0.0125067 3.02997 -0.000564334C3.54994 0.0150416 4.04336 0.232625 4.40556 0.60602C4.76775 0.979414 4.97021 1.47924 4.96997 1.99944ZM5.02997 5.47944H1.02997V17.9994H5.02997V5.47944ZM11.35 5.47944H7.36997V17.9994H11.31V11.4294C11.31 7.76944 16.08 7.42944 16.08 11.4294V17.9994H20.03V10.0694C20.03 3.89944 12.97 4.12944 11.31 7.15944L11.35 5.47944Z" fill="#88888C"/>
</g>
<defs>
<clipPath id="clip0_84_1263">
<rect width="19" height="18" fill="white" transform="translate(0.969971 -0.00146484)"/>
</clipPath>
</defs>
</svg>
