<svg width="48" height="49" viewBox="0 0 48 49" fill="none" xmlns="http://www.w3.org/2000/svg">
<circle cx="24" cy="24.5" r="23.7273" stroke="#F1F5F7" stroke-opacity="0.1" stroke-width="0.545455"/>
<path fill-rule="evenodd" clip-rule="evenodd" d="M24 14.5C19.5817 14.5 16 18.5026 16 23C16 27.4622 18.5533 32.3124 22.5371 34.1744C23.4657 34.6085 24.5343 34.6085 25.4629 34.1744C29.4467 32.3124 32 27.4622 32 23C32 18.5026 28.4183 14.5 24 14.5ZM24 24.5C25.1046 24.5 26 23.6046 26 22.5C26 21.3954 25.1046 20.5 24 20.5C22.8954 20.5 22 21.3954 22 22.5C22 23.6046 22.8954 24.5 24 24.5Z" fill="#154BA6"/>
<path fill-rule="evenodd" clip-rule="evenodd" d="M24 14.5C19.5817 14.5 16 18.5026 16 23C16 27.4622 18.5533 32.3124 22.5371 34.1744C23.4657 34.6085 24.5343 34.6085 25.4629 34.1744C29.4467 32.3124 32 27.4622 32 23C32 18.5026 28.4183 14.5 24 14.5ZM24 24.5C25.1046 24.5 26 23.6046 26 22.5C26 21.3954 25.1046 20.5 24 20.5C22.8954 20.5 22 21.3954 22 22.5C22 23.6046 22.8954 24.5 24 24.5Z" fill="url(#paint0_linear_84_1786)"/>
<defs>
<linearGradient id="paint0_linear_84_1786" x1="14.6921" y1="7.53179" x2="39.8274" y2="29.1567" gradientUnits="userSpaceOnUse">
<stop stop-color="#3F9CFB"/>
<stop stop-color="#1B89FA" stop-opacity="0.65"/>
<stop offset="0.569885" stop-color="#007EFF"/>
<stop offset="0.849257" stop-color="#4EA5FF" stop-opacity="0.59"/>
</linearGradient>
</defs>
</svg>
