<svg width="294" height="66" viewBox="0 0 294 66" fill="none" xmlns="http://www.w3.org/2000/svg">
<path fill-rule="evenodd" clip-rule="evenodd" d="M5.78553 19.8411L28.5594 6.68463L46.5801 17.0952L23.8062 56.5648L19.6386 54.1571L37.8257 22.6368L32.8153 19.7423L14.6282 51.2626L10.2872 48.7548L19.1765 33.3487L14.1661 30.4542L5.78553 44.9786V19.8411ZM29.0739 59.0135L51.3332 46.1542V20.4356L29.0739 59.0135ZM28.5594 0L57.1188 16.4988V49.4965L28.5594 65.9953L0 49.4965V16.4988L28.5594 0Z" fill="#3F9CFB"/>
<path d="M71.5193 20.2076C70.866 20.2076 70.2523 20.0932 69.6783 19.8646C69.109 19.6312 68.6073 19.2906 68.1733 18.8426C67.744 18.3946 67.408 17.8462 67.1653 17.1976C66.9227 16.5442 66.8013 15.7976 66.8013 14.9576C66.8013 13.8562 67.0067 12.9159 67.4173 12.1366C67.828 11.3526 68.3903 10.7529 69.1043 10.3376C69.8183 9.91756 70.6233 9.70756 71.5193 9.70756C72.7607 9.70756 73.743 9.99689 74.4663 10.5756C75.1943 11.1496 75.6867 11.9569 75.9433 12.9976L74.2213 13.2706C74.03 12.6732 73.7173 12.1972 73.2833 11.8426C72.8493 11.4832 72.2963 11.3036 71.6243 11.3036C70.9477 11.2942 70.3853 11.4412 69.9373 11.7446C69.4893 12.0479 69.151 12.4749 68.9223 13.0256C68.6983 13.5762 68.5863 14.2202 68.5863 14.9576C68.5863 15.6949 68.6983 16.3366 68.9223 16.8826C69.1463 17.4239 69.4823 17.8462 69.9303 18.1496C70.383 18.4529 70.9477 18.6092 71.6243 18.6186C72.133 18.6232 72.5787 18.5322 72.9613 18.3456C73.344 18.1542 73.6567 17.8672 73.8993 17.4846C74.142 17.0972 74.3053 16.6142 74.3893 16.0356H72.6113V14.7126H76.1813C76.1907 14.7872 76.1977 14.8969 76.2023 15.0416C76.207 15.1862 76.2093 15.2726 76.2093 15.3006C76.2093 16.2526 76.0203 17.0996 75.6423 17.8416C75.269 18.5789 74.7323 19.1576 74.0323 19.5776C73.3323 19.9976 72.4947 20.2076 71.5193 20.2076ZM77.6153 19.9976V9.91756H84.1253V11.4996H79.3023V13.9846H83.2853V15.5666H79.3023V18.4156H84.1253V19.9976H77.6153ZM89.6439 20.2076C88.6359 20.2076 87.7725 19.9882 87.0539 19.5496C86.3352 19.1062 85.7822 18.4902 85.3949 17.7016C85.0122 16.9129 84.8209 15.9982 84.8209 14.9576C84.8209 13.9169 85.0122 13.0022 85.3949 12.2136C85.7822 11.4249 86.3352 10.8112 87.0539 10.3726C87.7725 9.92922 88.6359 9.70756 89.6439 9.70756C90.6519 9.70756 91.5152 9.92922 92.2339 10.3726C92.9572 10.8112 93.5102 11.4249 93.8929 12.2136C94.2802 13.0022 94.4739 13.9169 94.4739 14.9576C94.4739 15.9982 94.2802 16.9129 93.8929 17.7016C93.5102 18.4902 92.9572 19.1062 92.2339 19.5496C91.5152 19.9882 90.6519 20.2076 89.6439 20.2076ZM89.6439 18.6186C90.3205 18.6232 90.8829 18.4739 91.3309 18.1706C91.7835 17.8672 92.1219 17.4402 92.3459 16.8896C92.5745 16.3389 92.6889 15.6949 92.6889 14.9576C92.6889 14.2202 92.5745 13.5809 92.3459 13.0396C92.1219 12.4936 91.7835 12.0689 91.3309 11.7656C90.8829 11.4622 90.3205 11.3059 89.6439 11.2966C88.9672 11.2919 88.4049 11.4412 87.9569 11.7446C87.5089 12.0479 87.1705 12.4749 86.9419 13.0256C86.7179 13.5762 86.6059 14.2202 86.6059 14.9576C86.6059 15.6949 86.7179 16.3366 86.9419 16.8826C87.1659 17.4239 87.5019 17.8462 87.9499 18.1496C88.4025 18.4529 88.9672 18.6092 89.6439 18.6186ZM96.0072 19.9976V9.91756H97.6942V18.4156H102.146V19.9976H96.0072ZM107.322 20.2076C106.314 20.2076 105.45 19.9882 104.732 19.5496C104.013 19.1062 103.46 18.4902 103.073 17.7016C102.69 16.9129 102.499 15.9982 102.499 14.9576C102.499 13.9169 102.69 13.0022 103.073 12.2136C103.46 11.4249 104.013 10.8112 104.732 10.3726C105.45 9.92922 106.314 9.70756 107.322 9.70756C108.33 9.70756 109.193 9.92922 109.912 10.3726C110.635 10.8112 111.188 11.4249 111.571 12.2136C111.958 13.0022 112.152 13.9169 112.152 14.9576C112.152 15.9982 111.958 16.9129 111.571 17.7016C111.188 18.4902 110.635 19.1062 109.912 19.5496C109.193 19.9882 108.33 20.2076 107.322 20.2076ZM107.322 18.6186C107.998 18.6232 108.561 18.4739 109.009 18.1706C109.461 17.8672 109.8 17.4402 110.024 16.8896C110.252 16.3389 110.367 15.6949 110.367 14.9576C110.367 14.2202 110.252 13.5809 110.024 13.0396C109.8 12.4936 109.461 12.0689 109.009 11.7656C108.561 11.4622 107.998 11.3059 107.322 11.2966C106.645 11.2919 106.083 11.4412 105.635 11.7446C105.187 12.0479 104.848 12.4749 104.62 13.0256C104.396 13.5762 104.284 14.2202 104.284 14.9576C104.284 15.6949 104.396 16.3366 104.62 16.8826C104.844 17.4239 105.18 17.8462 105.628 18.1496C106.08 18.4529 106.645 18.6092 107.322 18.6186ZM117.703 20.2076C117.05 20.2076 116.436 20.0932 115.862 19.8646C115.293 19.6312 114.791 19.2906 114.357 18.8426C113.928 18.3946 113.592 17.8462 113.349 17.1976C113.106 16.5442 112.985 15.7976 112.985 14.9576C112.985 13.8562 113.19 12.9159 113.601 12.1366C114.012 11.3526 114.574 10.7529 115.288 10.3376C116.002 9.91756 116.807 9.70756 117.703 9.70756C118.944 9.70756 119.927 9.99689 120.65 10.5756C121.378 11.1496 121.87 11.9569 122.127 12.9976L120.405 13.2706C120.214 12.6732 119.901 12.1972 119.467 11.8426C119.033 11.4832 118.48 11.3036 117.808 11.3036C117.131 11.2942 116.569 11.4412 116.121 11.7446C115.673 12.0479 115.335 12.4749 115.106 13.0256C114.882 13.5762 114.77 14.2202 114.77 14.9576C114.77 15.6949 114.882 16.3366 115.106 16.8826C115.33 17.4239 115.666 17.8462 116.114 18.1496C116.567 18.4529 117.131 18.6092 117.808 18.6186C118.317 18.6232 118.762 18.5322 119.145 18.3456C119.528 18.1542 119.84 17.8672 120.083 17.4846C120.326 17.0972 120.489 16.6142 120.573 16.0356H118.795V14.7126H122.365C122.374 14.7872 122.381 14.8969 122.386 15.0416C122.391 15.1862 122.393 15.2726 122.393 15.3006C122.393 16.2526 122.204 17.0996 121.826 17.8416C121.453 18.5789 120.916 19.1576 120.216 19.5776C119.516 19.9976 118.678 20.2076 117.703 20.2076ZM123.939 19.9976V9.91756H125.626V19.9976H123.939ZM129.612 19.9976V15.8676L126.182 9.91756H128.149L130.466 13.9356L132.776 9.91756H134.743L131.32 15.8676V19.9976H129.612ZM134.036 19.9976L137.214 9.91756H139.685L142.863 19.9976H141.127L138.243 10.9536H138.621L135.772 19.9976H134.036ZM135.807 17.8136V16.2386H141.099V17.8136H135.807ZM143.989 21.7826L144.087 21.0546C144.302 21.0732 144.472 21.0359 144.598 20.9426C144.724 20.8539 144.808 20.7256 144.85 20.5576C144.897 20.3942 144.908 20.2076 144.885 19.9976H143.989V18.1986H145.718V20.0676C145.718 20.6789 145.573 21.1409 145.284 21.4536C144.995 21.7662 144.563 21.8759 143.989 21.7826ZM151.184 19.9976V9.91756H152.703L156.189 17.0576L159.675 9.91756H161.194V19.9976H159.619V13.5366L156.525 19.9976H155.853L152.766 13.5366V19.9976H151.184ZM163.16 19.9976V9.91756H169.67V11.4996H164.847V13.9846H168.83V15.5666H164.847V18.4156H169.67V19.9976H163.16ZM173.772 19.9976V11.4996H170.51V9.91756H178.721V11.4996H175.459V19.9976H173.772ZM178.866 19.9976L182.044 9.91756H184.515L187.693 19.9976H185.957L183.073 10.9536H183.451L180.602 19.9976H178.866ZM180.637 17.8136V16.2386H185.929V17.8136H180.637ZM189.099 19.9976V9.91756H190.786V18.4156H195.238V19.9976H189.099ZM196.564 19.9976V9.91756H198.251V18.4156H202.703V19.9976H196.564ZM207.949 20.2076C207.146 20.2076 206.439 20.0442 205.828 19.7176C205.221 19.3909 204.745 18.9312 204.4 18.3386C204.059 17.7459 203.889 17.0506 203.889 16.2526V9.93156L205.597 9.91756V16.2106C205.597 16.5886 205.66 16.9269 205.786 17.2256C205.916 17.5242 206.091 17.7786 206.311 17.9886C206.53 18.1939 206.782 18.3502 207.067 18.4576C207.351 18.5649 207.645 18.6186 207.949 18.6186C208.261 18.6186 208.558 18.5649 208.838 18.4576C209.122 18.3456 209.374 18.1869 209.594 17.9816C209.813 17.7716 209.986 17.5172 210.112 17.2186C210.238 16.9199 210.301 16.5839 210.301 16.2106V9.91756H212.009V16.2526C212.009 17.0506 211.836 17.7459 211.491 18.3386C211.15 18.9312 210.674 19.3909 210.063 19.7176C209.456 20.0442 208.751 20.2076 207.949 20.2076ZM213.965 19.9976V9.91756H218.13C218.228 9.91756 218.354 9.92222 218.508 9.93156C218.662 9.93622 218.804 9.95022 218.935 9.97356C219.518 10.0622 219.999 10.2559 220.377 10.5546C220.76 10.8532 221.042 11.2312 221.224 11.6886C221.411 12.1412 221.504 12.6452 221.504 13.2006C221.504 14.0219 221.296 14.7289 220.881 15.3216C220.466 15.9096 219.829 16.2736 218.97 16.4136L218.249 16.4766H215.652V19.9976H213.965ZM219.754 19.9976L217.766 15.8956L219.481 15.5176L221.665 19.9976H219.754ZM215.652 14.9016H218.06C218.153 14.9016 218.258 14.8969 218.375 14.8876C218.492 14.8782 218.599 14.8596 218.697 14.8316C218.977 14.7616 219.196 14.6379 219.355 14.4606C219.518 14.2832 219.633 14.0826 219.698 13.8586C219.768 13.6346 219.803 13.4152 219.803 13.2006C219.803 12.9859 219.768 12.7666 219.698 12.5426C219.633 12.3139 219.518 12.1109 219.355 11.9336C219.196 11.7562 218.977 11.6326 218.697 11.5626C218.599 11.5346 218.492 11.5182 218.375 11.5136C218.258 11.5042 218.153 11.4996 218.06 11.4996H215.652V14.9016ZM227.365 20.2076C226.712 20.2076 226.098 20.0932 225.524 19.8646C224.955 19.6312 224.453 19.2906 224.019 18.8426C223.59 18.3946 223.254 17.8462 223.011 17.1976C222.768 16.5442 222.647 15.7976 222.647 14.9576C222.647 13.8562 222.852 12.9159 223.263 12.1366C223.674 11.3526 224.236 10.7529 224.95 10.3376C225.664 9.91756 226.469 9.70756 227.365 9.70756C228.606 9.70756 229.589 9.99689 230.312 10.5756C231.04 11.1496 231.532 11.9569 231.789 12.9976L230.067 13.2706C229.876 12.6732 229.563 12.1972 229.129 11.8426C228.695 11.4832 228.142 11.3036 227.47 11.3036C226.793 11.2942 226.231 11.4412 225.783 11.7446C225.335 12.0479 224.997 12.4749 224.768 13.0256C224.544 13.5762 224.432 14.2202 224.432 14.9576C224.432 15.6949 224.544 16.3366 224.768 16.8826C224.992 17.4239 225.328 17.8462 225.776 18.1496C226.229 18.4529 226.793 18.6092 227.47 18.6186C227.979 18.6232 228.424 18.5322 228.807 18.3456C229.19 18.1542 229.502 17.8672 229.745 17.4846C229.988 17.0972 230.151 16.6142 230.235 16.0356H228.457V14.7126H232.027C232.036 14.7872 232.043 14.8969 232.048 15.0416C232.053 15.1862 232.055 15.2726 232.055 15.3006C232.055 16.2526 231.866 17.0996 231.488 17.8416C231.115 18.5789 230.578 19.1576 229.878 19.5776C229.178 19.9976 228.34 20.2076 227.365 20.2076ZM233.601 19.9976V9.91756H235.288V19.9976H233.601ZM239.274 19.9976V15.8676L235.844 9.91756H237.811L240.128 13.9356L242.438 9.91756H244.405L240.982 15.8676V19.9976H239.274ZM243.698 19.9976L246.876 9.91756H249.347L252.525 19.9976H250.789L247.905 10.9536H248.283L245.434 19.9976H243.698ZM245.469 17.8136V16.2386H250.761V17.8136H245.469ZM258.862 19.9976L255.684 9.91756H257.42L260.08 18.3596L262.775 9.91756H264.511L261.333 19.9976H258.862ZM263.878 19.9976L267.056 9.91756H269.527L272.705 19.9976H270.969L268.085 10.9536H268.463L265.614 19.9976H263.878ZM265.649 17.8136V16.2386H270.941V17.8136H265.649ZM67.3613 37.9976V27.9176H68.8803L72.3663 35.0576L75.8523 27.9176H77.3713V37.9976H75.7963V31.5366L72.7023 37.9976H72.0303L68.9433 31.5366V37.9976H67.3613ZM79.4779 37.9976V27.9176H81.1649V37.9976H79.4779ZM86.9927 38.2076C86.2554 38.2076 85.5904 38.0792 84.9977 37.8226C84.4097 37.5659 83.9244 37.1996 83.5417 36.7236C83.1637 36.2429 82.9234 35.6736 82.8207 35.0156L84.5707 34.7496C84.7201 35.3469 85.0257 35.8089 85.4877 36.1356C85.9544 36.4622 86.4911 36.6256 87.0977 36.6256C87.4571 36.6256 87.7954 36.5696 88.1127 36.4576C88.4301 36.3456 88.6867 36.1822 88.8827 35.9676C89.0834 35.7529 89.1837 35.4892 89.1837 35.1766C89.1837 35.0366 89.1604 34.9082 89.1137 34.7916C89.0671 34.6702 88.9971 34.5629 88.9037 34.4696C88.8151 34.3762 88.6984 34.2922 88.5537 34.2176C88.4137 34.1382 88.2504 34.0706 88.0637 34.0146L85.4597 33.2446C85.2357 33.1792 84.9931 33.0929 84.7317 32.9856C84.4751 32.8736 84.2301 32.7219 83.9967 32.5306C83.7681 32.3346 83.5791 32.0872 83.4297 31.7886C83.2851 31.4852 83.2127 31.1119 83.2127 30.6686C83.2127 30.0199 83.3761 29.4762 83.7027 29.0376C84.0341 28.5942 84.4774 28.2629 85.0327 28.0436C85.5927 27.8242 86.2134 27.7169 86.8947 27.7216C87.5854 27.7262 88.2014 27.8452 88.7427 28.0786C89.2841 28.3072 89.7367 28.6409 90.1007 29.0796C90.4647 29.5182 90.7214 30.0479 90.8707 30.6686L89.0577 30.9836C88.9831 30.6289 88.8384 30.3279 88.6237 30.0806C88.4137 29.8286 88.1547 29.6372 87.8467 29.5066C87.5434 29.3759 87.2191 29.3059 86.8737 29.2966C86.5377 29.2919 86.2251 29.3432 85.9357 29.4506C85.6511 29.5532 85.4201 29.7026 85.2427 29.8986C85.0701 30.0946 84.9837 30.3232 84.9837 30.5846C84.9837 30.8319 85.0584 31.0349 85.2077 31.1936C85.3571 31.3476 85.5414 31.4712 85.7607 31.5646C85.9847 31.6532 86.2111 31.7279 86.4397 31.7886L88.2457 32.2926C88.4931 32.3579 88.7707 32.4466 89.0787 32.5586C89.3867 32.6706 89.6831 32.8269 89.9677 33.0276C90.2524 33.2282 90.4857 33.4919 90.6677 33.8186C90.8544 34.1452 90.9477 34.5606 90.9477 35.0646C90.9477 35.5872 90.8381 36.0469 90.6187 36.4436C90.4041 36.8356 90.1124 37.1622 89.7437 37.4236C89.3751 37.6849 88.9527 37.8809 88.4767 38.0116C88.0054 38.1422 87.5107 38.2076 86.9927 38.2076ZM92.4629 37.9976V27.9176H94.1709L98.8469 35.0226V27.9176H100.555V37.9976H98.8469L94.1709 30.8926V37.9976H92.4629ZM102.652 37.9976V27.9176H104.339V37.9976H102.652ZM117.127 38.2076L114.25 35.3446L115.307 34.2876L118.17 37.1506L117.127 38.2076ZM113.501 38.2076C112.493 38.2076 111.63 37.9882 110.911 37.5496C110.193 37.1062 109.64 36.4902 109.252 35.7016C108.87 34.9129 108.678 33.9982 108.678 32.9576C108.678 31.9169 108.87 31.0022 109.252 30.2136C109.64 29.4249 110.193 28.8112 110.911 28.3726C111.63 27.9292 112.493 27.7076 113.501 27.7076C114.509 27.7076 115.373 27.9292 116.091 28.3726C116.815 28.8112 117.368 29.4249 117.75 30.2136C118.138 31.0022 118.331 31.9169 118.331 32.9576C118.331 33.9982 118.138 34.9129 117.75 35.7016C117.368 36.4902 116.815 37.1062 116.091 37.5496C115.373 37.9882 114.509 38.2076 113.501 38.2076ZM113.501 36.6186C114.178 36.6232 114.74 36.4739 115.188 36.1706C115.641 35.8672 115.979 35.4402 116.203 34.8896C116.432 34.3389 116.546 33.6949 116.546 32.9576C116.546 32.2202 116.432 31.5809 116.203 31.0396C115.979 30.4936 115.641 30.0689 115.188 29.7656C114.74 29.4622 114.178 29.3059 113.501 29.2966C112.825 29.2919 112.262 29.4412 111.814 29.7446C111.366 30.0479 111.028 30.4749 110.799 31.0256C110.575 31.5762 110.463 32.2202 110.463 32.9576C110.463 33.6949 110.575 34.3366 110.799 34.8826C111.023 35.4239 111.359 35.8462 111.807 36.1496C112.26 36.4529 112.825 36.6092 113.501 36.6186ZM118.751 37.9976L121.929 27.9176H124.4L127.578 37.9976H125.842L122.958 28.9536H123.336L120.487 37.9976H118.751ZM120.522 35.8136V34.2386H125.814V35.8136H120.522ZM130.46 37.9976V33.8676L127.03 27.9176H128.997L131.314 31.9356L133.624 27.9176H135.591L132.168 33.8676V37.9976H130.46ZM139.414 37.9976V29.4996H136.152V27.9176H144.363V29.4996H141.101V37.9976H139.414ZM144.509 37.9976L147.687 27.9176H150.158L153.336 37.9976H151.6L148.716 28.9536H149.094L146.245 37.9976H144.509ZM146.28 35.8136V34.2386H151.572V35.8136H146.28ZM157.544 37.9976V27.9176H159.231V37.9976H157.544ZM165.059 38.2076C164.322 38.2076 163.657 38.0792 163.064 37.8226C162.476 37.5659 161.991 37.1996 161.608 36.7236C161.23 36.2429 160.99 35.6736 160.887 35.0156L162.637 34.7496C162.786 35.3469 163.092 35.8089 163.554 36.1356C164.021 36.4622 164.557 36.6256 165.164 36.6256C165.523 36.6256 165.862 36.5696 166.179 36.4576C166.496 36.3456 166.753 36.1822 166.949 35.9676C167.15 35.7529 167.25 35.4892 167.25 35.1766C167.25 35.0366 167.227 34.9082 167.18 34.7916C167.133 34.6702 167.063 34.5629 166.97 34.4696C166.881 34.3762 166.765 34.2922 166.62 34.2176C166.48 34.1382 166.317 34.0706 166.13 34.0146L163.526 33.2446C163.302 33.1792 163.059 33.0929 162.798 32.9856C162.541 32.8736 162.296 32.7219 162.063 32.5306C161.834 32.3346 161.645 32.0872 161.496 31.7886C161.351 31.4852 161.279 31.1119 161.279 30.6686C161.279 30.0199 161.442 29.4762 161.769 29.0376C162.1 28.5942 162.544 28.2629 163.099 28.0436C163.659 27.8242 164.28 27.7169 164.961 27.7216C165.652 27.7262 166.268 27.8452 166.809 28.0786C167.35 28.3072 167.803 28.6409 168.167 29.0796C168.531 29.5182 168.788 30.0479 168.937 30.6686L167.124 30.9836C167.049 30.6289 166.905 30.3279 166.69 30.0806C166.48 29.8286 166.221 29.6372 165.913 29.5066C165.61 29.3759 165.285 29.3059 164.94 29.2966C164.604 29.2919 164.291 29.3432 164.002 29.4506C163.717 29.5532 163.486 29.7026 163.309 29.8986C163.136 30.0946 163.05 30.3232 163.05 30.5846C163.05 30.8319 163.125 31.0349 163.274 31.1936C163.423 31.3476 163.608 31.4712 163.827 31.5646C164.051 31.6532 164.277 31.7279 164.506 31.7886L166.312 32.2926C166.559 32.3579 166.837 32.4466 167.145 32.5586C167.453 32.6706 167.749 32.8269 168.034 33.0276C168.319 33.2282 168.552 33.4919 168.734 33.8186C168.921 34.1452 169.014 34.5606 169.014 35.0646C169.014 35.5872 168.904 36.0469 168.685 36.4436C168.47 36.8356 168.179 37.1622 167.81 37.4236C167.441 37.6849 167.019 37.8809 166.543 38.0116C166.072 38.1422 165.577 38.2076 165.059 38.2076ZM170.529 37.9976V27.9176H172.216V32.1596H176.99V27.9176H178.67V37.9976H176.99V33.7416H172.216V37.9976H170.529ZM180.773 37.9976V27.9176H182.46V36.4156H186.912V37.9976H180.773ZM187.398 37.9976L190.576 27.9176H193.047L196.225 37.9976H194.489L191.605 28.9536H191.983L189.134 37.9976H187.398ZM189.169 35.8136V34.2386H194.461V35.8136H189.169ZM200.948 38.2076C200.21 38.2076 199.545 38.0792 198.953 37.8226C198.365 37.5659 197.879 37.1996 197.497 36.7236C197.119 36.2429 196.878 35.6736 196.776 35.0156L198.526 34.7496C198.675 35.3469 198.981 35.8089 199.443 36.1356C199.909 36.4622 200.446 36.6256 201.053 36.6256C201.412 36.6256 201.75 36.5696 202.068 36.4576C202.385 36.3456 202.642 36.1822 202.838 35.9676C203.038 35.7529 203.139 35.4892 203.139 35.1766C203.139 35.0366 203.115 34.9082 203.069 34.7916C203.022 34.6702 202.952 34.5629 202.859 34.4696C202.77 34.3762 202.653 34.2922 202.509 34.2176C202.369 34.1382 202.205 34.0706 202.019 34.0146L199.415 33.2446C199.191 33.1792 198.948 33.0929 198.687 32.9856C198.43 32.8736 198.185 32.7219 197.952 32.5306C197.723 32.3346 197.534 32.0872 197.385 31.7886C197.24 31.4852 197.168 31.1119 197.168 30.6686C197.168 30.0199 197.331 29.4762 197.658 29.0376C197.989 28.5942 198.432 28.2629 198.988 28.0436C199.548 27.8242 200.168 27.7169 200.85 27.7216C201.54 27.7262 202.156 27.8452 202.698 28.0786C203.239 28.3072 203.692 28.6409 204.056 29.0796C204.42 29.5182 204.676 30.0479 204.826 30.6686L203.013 30.9836C202.938 30.6289 202.793 30.3279 202.579 30.0806C202.369 29.8286 202.11 29.6372 201.802 29.5066C201.498 29.3759 201.174 29.3059 200.829 29.2966C200.493 29.2919 200.18 29.3432 199.891 29.4506C199.606 29.5532 199.375 29.7026 199.198 29.8986C199.025 30.0946 198.939 30.3232 198.939 30.5846C198.939 30.8319 199.013 31.0349 199.163 31.1936C199.312 31.3476 199.496 31.4712 199.716 31.5646C199.94 31.6532 200.166 31.7279 200.395 31.7886L202.201 32.2926C202.448 32.3579 202.726 32.4466 203.034 32.5586C203.342 32.6706 203.638 32.8269 203.923 33.0276C204.207 33.2282 204.441 33.4919 204.623 33.8186C204.809 34.1452 204.903 34.5606 204.903 35.0646C204.903 35.5872 204.793 36.0469 204.574 36.4436C204.359 36.8356 204.067 37.1622 203.699 37.4236C203.33 37.6849 202.908 37.8809 202.432 38.0116C201.96 38.1422 201.466 38.2076 200.948 38.2076ZM206.418 37.9976V27.9176H208.105V32.1596H212.879V27.9176H214.559V37.9976H212.879V33.7416H208.105V37.9976H206.418ZM223.055 38.2076C222.318 38.2076 221.653 38.0792 221.06 37.8226C220.472 37.5659 219.987 37.1996 219.604 36.7236C219.226 36.2429 218.986 35.6736 218.883 35.0156L220.633 34.7496C220.783 35.3469 221.088 35.8089 221.55 36.1356C222.017 36.4622 222.554 36.6256 223.16 36.6256C223.52 36.6256 223.858 36.5696 224.175 36.4576C224.493 36.3456 224.749 36.1822 224.945 35.9676C225.146 35.7529 225.246 35.4892 225.246 35.1766C225.246 35.0366 225.223 34.9082 225.176 34.7916C225.13 34.6702 225.06 34.5629 224.966 34.4696C224.878 34.3762 224.761 34.2922 224.616 34.2176C224.476 34.1382 224.313 34.0706 224.126 34.0146L221.522 33.2446C221.298 33.1792 221.056 33.0929 220.794 32.9856C220.538 32.8736 220.293 32.7219 220.059 32.5306C219.831 32.3346 219.642 32.0872 219.492 31.7886C219.348 31.4852 219.275 31.1119 219.275 30.6686C219.275 30.0199 219.439 29.4762 219.765 29.0376C220.097 28.5942 220.54 28.2629 221.095 28.0436C221.655 27.8242 222.276 27.7169 222.957 27.7216C223.648 27.7262 224.264 27.8452 224.805 28.0786C225.347 28.3072 225.799 28.6409 226.163 29.0796C226.527 29.5182 226.784 30.0479 226.933 30.6686L225.12 30.9836C225.046 30.6289 224.901 30.3279 224.686 30.0806C224.476 29.8286 224.217 29.6372 223.909 29.5066C223.606 29.3759 223.282 29.3059 222.936 29.2966C222.6 29.2919 222.288 29.3432 221.998 29.4506C221.714 29.5532 221.483 29.7026 221.305 29.8986C221.133 30.0946 221.046 30.3232 221.046 30.5846C221.046 30.8319 221.121 31.0349 221.27 31.1936C221.42 31.3476 221.604 31.4712 221.823 31.5646C222.047 31.6532 222.274 31.7279 222.502 31.7886L224.308 32.2926C224.556 32.3579 224.833 32.4466 225.141 32.5586C225.449 32.6706 225.746 32.8269 226.03 33.0276C226.315 33.2282 226.548 33.4919 226.73 33.8186C226.917 34.1452 227.01 34.5606 227.01 35.0646C227.01 35.5872 226.901 36.0469 226.681 36.4436C226.467 36.8356 226.175 37.1622 225.806 37.4236C225.438 37.6849 225.015 37.8809 224.539 38.0116C224.068 38.1422 223.573 38.2076 223.055 38.2076ZM227.825 37.9976L231.003 27.9176H233.474L236.652 37.9976H234.916L232.032 28.9536H232.41L229.561 37.9976H227.825ZM229.596 35.8136V34.2386H234.888V35.8136H229.596ZM237.918 37.9976V27.9176H239.626L244.302 35.0226V27.9176H246.01V37.9976H244.302L239.626 30.8926V37.9976H237.918ZM252.23 38.2076C251.222 38.2076 250.358 37.9882 249.64 37.5496C248.921 37.1062 248.368 36.4902 247.981 35.7016C247.598 34.9129 247.407 33.9982 247.407 32.9576C247.407 31.9169 247.598 31.0022 247.981 30.2136C248.368 29.4249 248.921 28.8112 249.64 28.3726C250.358 27.9292 251.222 27.7076 252.23 27.7076C253.238 27.7076 254.101 27.9292 254.82 28.3726C255.543 28.8112 256.096 29.4249 256.479 30.2136C256.866 31.0022 257.06 31.9169 257.06 32.9576C257.06 33.9982 256.866 34.9129 256.479 35.7016C256.096 36.4902 255.543 37.1062 254.82 37.5496C254.101 37.9882 253.238 38.2076 252.23 38.2076ZM252.23 36.6186C252.906 36.6232 253.469 36.4739 253.917 36.1706C254.369 35.8672 254.708 35.4402 254.932 34.8896C255.16 34.3389 255.275 33.6949 255.275 32.9576C255.275 32.2202 255.16 31.5809 254.932 31.0396C254.708 30.4936 254.369 30.0689 253.917 29.7656C253.469 29.4622 252.906 29.3059 252.23 29.2966C251.553 29.2919 250.991 29.4412 250.543 29.7446C250.095 30.0479 249.756 30.4749 249.528 31.0256C249.304 31.5762 249.192 32.2202 249.192 32.9576C249.192 33.6949 249.304 34.3366 249.528 34.8826C249.752 35.4239 250.088 35.8462 250.536 36.1496C250.988 36.4529 251.553 36.6092 252.23 36.6186ZM257.48 37.9976L260.658 27.9176H263.129L266.307 37.9976H264.571L261.687 28.9536H262.065L259.216 37.9976H257.48ZM259.251 35.8136V34.2386H264.543V35.8136H259.251ZM269.16 37.9976V29.4996H265.898V27.9176H274.109V29.4996H270.847V37.9976H269.16ZM275.369 37.9976V27.9176H277.056V37.9976H275.369ZM279.152 37.9976V27.9176H280.86L285.536 35.0226V27.9176H287.244V37.9976H285.536L280.86 30.8926V37.9976H279.152ZM289.341 37.9976V27.9176H291.028V37.9976H289.341ZM67.3613 55.9976V45.9176H71.5263C71.6243 45.9176 71.7503 45.9222 71.9043 45.9316C72.0583 45.9362 72.2007 45.9502 72.3313 45.9736C72.9147 46.0622 73.3953 46.2559 73.7733 46.5546C74.156 46.8532 74.4383 47.2312 74.6203 47.6886C74.807 48.1412 74.9003 48.6452 74.9003 49.2006C74.9003 50.0219 74.6927 50.7289 74.2773 51.3216C73.862 51.9096 73.225 52.2736 72.3663 52.4136L71.6453 52.4766H69.0483V55.9976H67.3613ZM73.1503 55.9976L71.1623 51.8956L72.8773 51.5176L75.0613 55.9976H73.1503ZM69.0483 50.9016H71.4563C71.5497 50.9016 71.6547 50.8969 71.7713 50.8876C71.888 50.8782 71.9953 50.8596 72.0933 50.8316C72.3733 50.7616 72.5927 50.6379 72.7513 50.4606C72.9147 50.2832 73.029 50.0826 73.0943 49.8586C73.1643 49.6346 73.1993 49.4152 73.1993 49.2006C73.1993 48.9859 73.1643 48.7666 73.0943 48.5426C73.029 48.3139 72.9147 48.1109 72.7513 47.9336C72.5927 47.7562 72.3733 47.6326 72.0933 47.5626C71.9953 47.5346 71.888 47.5182 71.7713 47.5136C71.6547 47.5042 71.5497 47.4996 71.4563 47.4996H69.0483V50.9016ZM76.7435 55.9976V45.9176H78.4305V55.9976H76.7435ZM82.7954 55.9976L79.6174 45.9176H81.3534L84.0134 54.3596L86.7084 45.9176H88.4444L85.2664 55.9976H82.7954ZM93.4857 56.2076C92.4777 56.2076 91.6143 55.9882 90.8957 55.5496C90.177 55.1062 89.624 54.4902 89.2367 53.7016C88.854 52.9129 88.6627 51.9982 88.6627 50.9576C88.6627 49.9169 88.854 49.0022 89.2367 48.2136C89.624 47.4249 90.177 46.8112 90.8957 46.3726C91.6143 45.9292 92.4777 45.7076 93.4857 45.7076C94.4937 45.7076 95.357 45.9292 96.0757 46.3726C96.799 46.8112 97.352 47.4249 97.7347 48.2136C98.122 49.0022 98.3157 49.9169 98.3157 50.9576C98.3157 51.9982 98.122 52.9129 97.7347 53.7016C97.352 54.4902 96.799 55.1062 96.0757 55.5496C95.357 55.9882 94.4937 56.2076 93.4857 56.2076ZM93.4857 54.6186C94.1623 54.6232 94.7247 54.4739 95.1727 54.1706C95.6253 53.8672 95.9637 53.4402 96.1877 52.8896C96.4163 52.3389 96.5307 51.6949 96.5307 50.9576C96.5307 50.2202 96.4163 49.5809 96.1877 49.0396C95.9637 48.4936 95.6253 48.0689 95.1727 47.7656C94.7247 47.4622 94.1623 47.3059 93.4857 47.2966C92.809 47.2919 92.2467 47.4412 91.7987 47.7446C91.3507 48.0479 91.0123 48.4749 90.7837 49.0256C90.5597 49.5762 90.4477 50.2202 90.4477 50.9576C90.4477 51.6949 90.5597 52.3366 90.7837 52.8826C91.0077 53.4239 91.3437 53.8462 91.7917 54.1496C92.2443 54.4529 92.809 54.6092 93.4857 54.6186ZM101.725 56.2076C100.955 56.2076 100.313 56.0069 99.8 55.6056C99.2913 55.2042 98.9343 54.6629 98.729 53.9816L100.395 53.5826C100.446 53.8672 100.596 54.1122 100.843 54.3176C101.09 54.5229 101.363 54.6256 101.662 54.6256C101.858 54.6256 102.066 54.5742 102.285 54.4716C102.504 54.3642 102.668 54.1939 102.775 53.9606C102.84 53.8112 102.878 53.6339 102.887 53.4286C102.901 53.2186 102.908 52.9759 102.908 52.7006V45.9176H104.616V52.7006C104.616 53.0132 104.614 53.2886 104.609 53.5266C104.609 53.7599 104.586 53.9816 104.539 54.1916C104.497 54.3969 104.411 54.6092 104.28 54.8286C104.005 55.3046 103.645 55.6546 103.202 55.8786C102.759 56.0979 102.266 56.2076 101.725 56.2076ZM106.863 55.9976V45.9176H108.55V54.4156H113.002V55.9976H106.863ZM113.488 55.9976L116.666 45.9176H119.137L122.315 55.9976H120.579L117.695 46.9536H118.073L115.224 55.9976H113.488ZM115.259 53.8136V52.2386H120.551V53.8136H115.259ZM123.58 55.9976V45.9176H125.288L129.964 53.0226V45.9176H131.672V55.9976H129.964L125.288 48.8926V55.9976H123.58ZM136.051 55.9976V47.4996H132.789V45.9176H141V47.4996H137.738V55.9976H136.051ZM142.259 55.9976V45.9176H143.946V55.9976H142.259ZM146.043 55.9976V45.9176H150.208C150.306 45.9176 150.432 45.9222 150.586 45.9316C150.74 45.9362 150.882 45.9502 151.013 45.9736C151.596 46.0622 152.077 46.2559 152.455 46.5546C152.838 46.8532 153.12 47.2312 153.302 47.6886C153.489 48.1412 153.582 48.6452 153.582 49.2006C153.582 50.0219 153.374 50.7289 152.959 51.3216C152.544 51.9096 151.907 52.2736 151.048 52.4136L150.327 52.4766H147.73V55.9976H146.043ZM151.832 55.9976L149.844 51.8956L151.559 51.5176L153.743 55.9976H151.832ZM147.73 50.9016H150.138C150.231 50.9016 150.336 50.8969 150.453 50.8876C150.57 50.8782 150.677 50.8596 150.775 50.8316C151.055 50.7616 151.274 50.6379 151.433 50.4606C151.596 50.2832 151.711 50.0826 151.776 49.8586C151.846 49.6346 151.881 49.4152 151.881 49.2006C151.881 48.9859 151.846 48.7666 151.776 48.5426C151.711 48.3139 151.596 48.1109 151.433 47.9336C151.274 47.7562 151.055 47.6326 150.775 47.5626C150.677 47.5346 150.57 47.5182 150.453 47.5136C150.336 47.5042 150.231 47.4996 150.138 47.4996H147.73V50.9016ZM155.425 55.9976V45.9176H157.112V55.9976H155.425ZM162.94 56.2076C162.203 56.2076 161.538 56.0792 160.945 55.8226C160.357 55.5659 159.872 55.1996 159.489 54.7236C159.111 54.2429 158.871 53.6736 158.768 53.0156L160.518 52.7496C160.667 53.3469 160.973 53.8089 161.435 54.1356C161.902 54.4622 162.438 54.6256 163.045 54.6256C163.404 54.6256 163.743 54.5696 164.06 54.4576C164.377 54.3456 164.634 54.1822 164.83 53.9676C165.031 53.7529 165.131 53.4892 165.131 53.1766C165.131 53.0366 165.108 52.9082 165.061 52.7916C165.014 52.6702 164.944 52.5629 164.851 52.4696C164.762 52.3762 164.646 52.2922 164.501 52.2176C164.361 52.1382 164.198 52.0706 164.011 52.0146L161.407 51.2446C161.183 51.1792 160.94 51.0929 160.679 50.9856C160.422 50.8736 160.177 50.7219 159.944 50.5306C159.715 50.3346 159.526 50.0872 159.377 49.7886C159.232 49.4852 159.16 49.1119 159.16 48.6686C159.16 48.0199 159.323 47.4762 159.65 47.0376C159.981 46.5942 160.425 46.2629 160.98 46.0436C161.54 45.8242 162.161 45.7169 162.842 45.7216C163.533 45.7262 164.149 45.8452 164.69 46.0786C165.231 46.3072 165.684 46.6409 166.048 47.0796C166.412 47.5182 166.669 48.0479 166.818 48.6686L165.005 48.9836C164.93 48.6289 164.786 48.3279 164.571 48.0806C164.361 47.8286 164.102 47.6372 163.794 47.5066C163.491 47.3759 163.166 47.3059 162.821 47.2966C162.485 47.2919 162.172 47.3432 161.883 47.4506C161.598 47.5532 161.367 47.7026 161.19 47.8986C161.017 48.0946 160.931 48.3232 160.931 48.5846C160.931 48.8319 161.006 49.0349 161.155 49.1936C161.304 49.3476 161.489 49.4712 161.708 49.5646C161.932 49.6532 162.158 49.7279 162.387 49.7886L164.193 50.2926C164.44 50.3579 164.718 50.4466 165.026 50.5586C165.334 50.6706 165.63 50.8269 165.915 51.0276C166.2 51.2282 166.433 51.4919 166.615 51.8186C166.802 52.1452 166.895 52.5606 166.895 53.0646C166.895 53.5872 166.785 54.0469 166.566 54.4436C166.351 54.8356 166.06 55.1622 165.691 55.4236C165.322 55.6849 164.9 55.8809 164.424 56.0116C163.953 56.1422 163.458 56.2076 162.94 56.2076ZM168.41 55.9976V45.9176H170.097V50.1596H174.871V45.9176H176.551V55.9976H174.871V51.7416H170.097V55.9976H168.41ZM181.456 55.9976V45.9176H183.143V54.4156H187.595V55.9976H181.456ZM192.771 56.2076C191.763 56.2076 190.899 55.9882 190.181 55.5496C189.462 55.1062 188.909 54.4902 188.522 53.7016C188.139 52.9129 187.948 51.9982 187.948 50.9576C187.948 49.9169 188.139 49.0022 188.522 48.2136C188.909 47.4249 189.462 46.8112 190.181 46.3726C190.899 45.9292 191.763 45.7076 192.771 45.7076C193.779 45.7076 194.642 45.9292 195.361 46.3726C196.084 46.8112 196.637 47.4249 197.02 48.2136C197.407 49.0022 197.601 49.9169 197.601 50.9576C197.601 51.9982 197.407 52.9129 197.02 53.7016C196.637 54.4902 196.084 55.1062 195.361 55.5496C194.642 55.9882 193.779 56.2076 192.771 56.2076ZM192.771 54.6186C193.447 54.6232 194.01 54.4739 194.458 54.1706C194.91 53.8672 195.249 53.4402 195.473 52.8896C195.701 52.3389 195.816 51.6949 195.816 50.9576C195.816 50.2202 195.701 49.5809 195.473 49.0396C195.249 48.4936 194.91 48.0689 194.458 47.7656C194.01 47.4622 193.447 47.3059 192.771 47.2966C192.094 47.2919 191.532 47.4412 191.084 47.7446C190.636 48.0479 190.297 48.4749 190.069 49.0256C189.845 49.5762 189.733 50.2202 189.733 50.9576C189.733 51.6949 189.845 52.3366 190.069 52.8826C190.293 53.4239 190.629 53.8462 191.077 54.1496C191.529 54.4529 192.094 54.6092 192.771 54.6186ZM201.02 55.9976V51.8676L197.59 45.9176H199.557L201.874 49.9356L204.184 45.9176H206.151L202.728 51.8676V55.9976H201.02ZM206.681 55.9976V45.9176H208.368V55.9976H206.681ZM210.465 55.9976V45.9176H212.152V50.1596H216.926V45.9176H218.606V55.9976H216.926V51.7416H212.152V55.9976H210.465ZM219.868 55.9976L223.046 45.9176H225.517L228.695 55.9976H226.959L224.075 46.9536H224.453L221.604 55.9976H219.868ZM221.639 53.8136V52.2386H226.931V53.8136H221.639ZM237.027 56.2076C236.019 56.2076 235.155 55.9882 234.437 55.5496C233.718 55.1062 233.165 54.4902 232.778 53.7016C232.395 52.9129 232.204 51.9982 232.204 50.9576C232.204 49.9169 232.395 49.0022 232.778 48.2136C233.165 47.4249 233.718 46.8112 234.437 46.3726C235.155 45.9292 236.019 45.7076 237.027 45.7076C238.035 45.7076 238.898 45.9292 239.617 46.3726C240.34 46.8112 240.893 47.4249 241.276 48.2136C241.663 49.0022 241.857 49.9169 241.857 50.9576C241.857 51.9982 241.663 52.9129 241.276 53.7016C240.893 54.4902 240.34 55.1062 239.617 55.5496C238.898 55.9882 238.035 56.2076 237.027 56.2076ZM237.027 54.6186C237.703 54.6232 238.266 54.4739 238.714 54.1706C239.166 53.8672 239.505 53.4402 239.729 52.8896C239.957 52.3389 240.072 51.6949 240.072 50.9576C240.072 50.2202 239.957 49.5809 239.729 49.0396C239.505 48.4936 239.166 48.0689 238.714 47.7656C238.266 47.4622 237.703 47.3059 237.027 47.2966C236.35 47.2919 235.788 47.4412 235.34 47.7446C234.892 48.0479 234.553 48.4749 234.325 49.0256C234.101 49.5762 233.989 50.2202 233.989 50.9576C233.989 51.6949 234.101 52.3366 234.325 52.8826C234.549 53.4239 234.885 53.8462 235.333 54.1496C235.785 54.4529 236.35 54.6092 237.027 54.6186ZM243.25 55.9976V45.9176H249.319V47.6046H244.937V50.1176H248.479V51.7976H244.937V55.9976H243.25ZM250.718 55.9976V45.9176H252.405V55.9976H250.718ZM258.233 56.2076C257.496 56.2076 256.831 56.0792 256.238 55.8226C255.65 55.5659 255.165 55.1996 254.782 54.7236C254.404 54.2429 254.164 53.6736 254.061 53.0156L255.811 52.7496C255.96 53.3469 256.266 53.8089 256.728 54.1356C257.195 54.4622 257.731 54.6256 258.338 54.6256C258.697 54.6256 259.036 54.5696 259.353 54.4576C259.67 54.3456 259.927 54.1822 260.123 53.9676C260.324 53.7529 260.424 53.4892 260.424 53.1766C260.424 53.0366 260.401 52.9082 260.354 52.7916C260.307 52.6702 260.237 52.5629 260.144 52.4696C260.055 52.3762 259.939 52.2922 259.794 52.2176C259.654 52.1382 259.491 52.0706 259.304 52.0146L256.7 51.2446C256.476 51.1792 256.233 51.0929 255.972 50.9856C255.715 50.8736 255.47 50.7219 255.237 50.5306C255.008 50.3346 254.819 50.0872 254.67 49.7886C254.525 49.4852 254.453 49.1119 254.453 48.6686C254.453 48.0199 254.616 47.4762 254.943 47.0376C255.274 46.5942 255.718 46.2629 256.273 46.0436C256.833 45.8242 257.454 45.7169 258.135 45.7216C258.826 45.7262 259.442 45.8452 259.983 46.0786C260.524 46.3072 260.977 46.6409 261.341 47.0796C261.705 47.5182 261.962 48.0479 262.111 48.6686L260.298 48.9836C260.223 48.6289 260.079 48.3279 259.864 48.0806C259.654 47.8286 259.395 47.6372 259.087 47.5066C258.784 47.3759 258.459 47.3059 258.114 47.2966C257.778 47.2919 257.465 47.3432 257.176 47.4506C256.891 47.5532 256.66 47.7026 256.483 47.8986C256.31 48.0946 256.224 48.3232 256.224 48.5846C256.224 48.8319 256.299 49.0349 256.448 49.1936C256.597 49.3476 256.782 49.4712 257.001 49.5646C257.225 49.6532 257.451 49.7279 257.68 49.7886L259.486 50.2926C259.733 50.3579 260.011 50.4466 260.319 50.5586C260.627 50.6706 260.923 50.8269 261.208 51.0276C261.493 51.2282 261.726 51.4919 261.908 51.8186C262.095 52.1452 262.188 52.5606 262.188 53.0646C262.188 53.5872 262.078 54.0469 261.859 54.4436C261.644 54.8356 261.353 55.1622 260.984 55.4236C260.615 55.6849 260.193 55.8809 259.717 56.0116C259.246 56.1422 258.751 56.2076 258.233 56.2076ZM263.843 55.9976V45.9176H265.53V55.9976H263.843Z" fill="white"/>
</svg>
