<svg width="64" height="65" viewBox="0 0 64 65" fill="none" xmlns="http://www.w3.org/2000/svg">
<rect y="0.5" width="64" height="64" rx="32" fill="white"/>
<circle cx="32" cy="32.5" r="31.5" fill="#161B22" stroke="#30363D"/>
<path fill-rule="evenodd" clip-rule="evenodd" d="M39.9679 23.5C40.4889 23.5154 40.9833 23.7349 41.3454 24.1116C41.857 24.6019 42.0894 25.3174 41.9643 26.0165L39.339 39.6516C39.224 40.286 38.8219 40.8306 38.251 41.1254L37.9216 41.2959C37.2353 41.6332 36.4176 41.5476 35.8154 41.0753L32.7409 38.639L31.1538 40.1429C30.8339 40.4503 30.4087 40.6226 29.9659 40.6241C29.8466 40.6389 29.7259 40.6389 29.6066 40.6241C28.9721 40.4801 28.4666 39.9994 28.289 39.3709L26.9913 34.9696L22.6891 33.5258C22.2605 33.3861 21.9783 32.9753 22.0003 32.5233V31.8716C21.9683 31.4379 22.2183 31.033 22.6192 30.869L39.1893 23.6604C39.4355 23.5551 39.7003 23.5005 39.9679 23.5ZM37.5719 39.822C37.7284 39.7374 37.8384 39.5864 37.8714 39.411L40.4567 25.7758C40.4946 25.5769 40.4352 25.3719 40.297 25.2244C40.2015 25.1133 40.0638 25.0478 39.9177 25.044C39.8586 25.0299 39.7971 25.0299 39.738 25.044L23.4973 32.1222L27.9992 33.6662C28.135 33.7311 28.2927 33.7311 28.4284 33.6662L35.9748 28.8838C36.1209 28.8164 36.2939 28.8578 36.3941 28.9841C36.4652 29.0511 36.502 29.1471 36.4939 29.2448C36.4904 29.3443 36.4472 29.4382 36.3741 29.5055C35.2362 30.4679 33.3296 32.1523 30.1453 35.16C30.0436 35.2564 29.9859 35.3905 29.9856 35.531V39.0701C30.0361 39.0674 30.0846 39.05 30.1254 39.02L32.3414 36.9246C32.5265 36.7598 32.8051 36.7598 32.9902 36.9246L36.7434 39.9323C36.8243 40.0016 36.9266 40.0406 37.0329 40.0426C37.1058 40.0428 37.1776 40.0257 37.2425 39.9925L37.5719 39.822Z" fill="white"/>
</svg>
