<svg width="22" height="18" viewBox="0 0 22 18" fill="none" xmlns="http://www.w3.org/2000/svg">
<g clip-path="url(#clip0_84_1254)">
<path d="M22 2.17357C21.1778 2.54019 20.3043 2.7789 19.4099 2.88143C20.3537 2.31985 21.0601 1.4332 21.3967 0.387829C20.5082 0.912272 19.5372 1.28218 18.525 1.4818C17.9059 0.822256 17.1027 0.364045 16.2199 0.166626C15.337 -0.0307936 14.4152 0.0416935 13.5741 0.37468C12.7329 0.707667 12.0113 1.28578 11.5028 2.034C10.9943 2.78221 10.7225 3.66599 10.7225 4.57064C10.7215 4.91744 10.762 5.2631 10.8431 5.60026C9.04843 5.50931 7.29277 5.04278 5.68965 4.23083C4.08653 3.41888 2.67162 2.27957 1.53638 0.88655C0.958857 1.88026 0.782115 3.05683 1.04219 4.17636C1.30227 5.29589 1.97958 6.27406 2.93601 6.91141C2.21991 6.8887 1.51952 6.69568 0.89287 6.34834V6.40465C0.892853 7.44656 1.25332 8.45639 1.9131 9.26279C2.57287 10.0692 3.49133 10.6225 4.51261 10.8288C4.12481 10.9357 3.72438 10.9898 3.32212 10.9897C3.03613 10.9872 2.75088 10.9603 2.46947 10.9092C2.75802 11.8058 3.31924 12.5901 4.07484 13.1524C4.83044 13.7148 5.74274 14.0273 6.68446 14.0463C5.08433 15.2992 3.11013 15.979 1.07788 15.9769C0.717662 15.9757 0.357796 15.9542 0 15.9125C2.06354 17.2382 4.46505 17.9419 6.91773 17.9396C15.219 17.9396 19.7558 11.0621 19.7558 5.10154C19.7558 4.90849 19.7477 4.70739 19.7397 4.51434C20.6263 3.87474 21.3918 3.08206 22 2.17357Z" fill="#88888C"/>
</g>
<defs>
<clipPath id="clip0_84_1254">
<rect width="22" height="17.8815" fill="white" transform="translate(0 0.0581055)"/>
</clipPath>
</defs>
</svg>
