<svg width="16" height="9" viewBox="0 0 16 9" fill="none" xmlns="http://www.w3.org/2000/svg">
<path fill-rule="evenodd" clip-rule="evenodd" d="M10.4452 0.664307C10.4452 0.388164 10.669 0.164307 10.9452 0.164307H14.6666C14.9427 0.164307 15.1666 0.388164 15.1666 0.664307V4.36153C15.1666 4.63767 14.9427 4.86153 14.6666 4.86153C14.3904 4.86153 14.1666 4.63767 14.1666 4.36153V1.86621L10.076 5.93184C9.76339 6.2426 9.49392 6.51046 9.2492 6.69612C8.98687 6.89512 8.6954 7.04567 8.3366 7.04563C7.97779 7.04558 7.68636 6.89497 7.42408 6.6959C7.1794 6.5102 6.91 6.24229 6.59744 5.93146L6.4146 5.74964C6.07183 5.40881 5.8496 5.18932 5.66455 5.04888C5.49107 4.91722 5.40996 4.90253 5.35625 4.90255C5.30254 4.90257 5.22144 4.91732 5.04805 5.04911C4.8631 5.18968 4.64103 5.40933 4.29851 5.75042L1.68606 8.35193C1.49039 8.54679 1.17381 8.54612 0.978958 8.35045C0.784106 8.15478 0.784769 7.8382 0.98044 7.64335L3.61614 5.01867C3.92876 4.70733 4.1982 4.43898 4.44293 4.25297C4.70527 4.05358 4.99682 3.90268 5.35588 3.90255C5.71494 3.90242 6.00661 4.05311 6.26909 4.2523C6.51395 4.43814 6.78359 4.70628 7.09643 5.01739L7.27927 5.19921C7.62175 5.53975 7.84377 5.75903 8.02865 5.89935C8.20197 6.0309 8.28302 6.04562 8.33671 6.04563C8.3904 6.04563 8.47145 6.03093 8.64481 5.89943C8.82972 5.75915 9.05179 5.53992 9.39434 5.19945L13.4542 1.16431H10.9452C10.669 1.16431 10.4452 0.940449 10.4452 0.664307Z" fill="#09E011"/>
</svg>
