<svg width="64" height="65" viewBox="0 0 64 65" fill="none" xmlns="http://www.w3.org/2000/svg">
<rect y="0.5" width="64" height="64" rx="32" fill="white"/>
<circle cx="32" cy="32.5" r="31.5" fill="#161B22" stroke="#30363D"/>
<path fill-rule="evenodd" clip-rule="evenodd" d="M39.9999 24.99L38.5399 24.84C34.1716 24.3867 29.7682 24.3867 25.3999 24.84L23.9999 24.99C22.2714 25.1854 20.9735 26.6607 20.9999 28.4V36.6C20.9735 38.3393 22.2714 39.8146 23.9999 40.01L25.4599 40.16C27.6325 40.3869 29.8155 40.5004 31.9999 40.5C34.1943 40.5014 36.3873 40.3879 38.5699 40.16L39.9999 40.01C41.7284 39.8146 43.0264 38.3393 42.9999 36.6V28.4C43.0264 26.6607 41.7284 25.1854 39.9999 24.99ZM40.9999 36.5999C41.0278 37.3054 40.5186 37.9181 39.8199 38.0199L38.3599 38.1699C36.2471 38.39 34.1242 38.5002 31.9999 38.4999C29.8756 38.5002 27.7528 38.39 25.6399 38.1699L24.1799 38.0199C23.4812 37.9181 22.9721 37.3054 22.9999 36.5999V28.3999C22.9721 27.6944 23.4812 27.0817 24.1799 26.9799L25.6399 26.8299C29.8685 26.3899 34.1313 26.3899 38.3599 26.8299L39.8199 26.9799C40.5186 27.0817 41.0278 27.6944 40.9999 28.3999V36.5999ZM30.3989 29.2387C30.6438 29.1089 30.9404 29.1248 31.1701 29.28L35.0601 31.88C35.2697 32.0166 35.3961 32.2498 35.3961 32.5C35.3961 32.7502 35.2697 32.9834 35.0601 33.12L31.1701 35.72C30.9404 35.8752 30.6438 35.8911 30.3989 35.7613C30.154 35.6315 30.0006 35.3772 30.0001 35.1V29.9C30.0006 29.6228 30.154 29.3685 30.3989 29.2387Z" fill="white"/>
</svg>
