<svg width="24" height="16" viewBox="0 0 24 16" fill="none" xmlns="http://www.w3.org/2000/svg">
<g clip-path="url(#clip0_84_1266)">
<path d="M22.3659 2.50735C22.2417 2.0282 21.9938 1.59012 21.6469 1.23703C21.3 0.883941 20.8664 0.628248 20.3895 0.495588C18.6248 0.00147052 11.5542 0.00147053 11.5542 0.00147053C8.60589 -0.0339604 5.65844 0.123237 2.73065 0.472059C2.25361 0.614415 1.82071 0.875996 1.47284 1.23211C1.12496 1.58822 0.873574 2.02711 0.742414 2.50735C0.426104 4.3214 0.272552 6.16009 0.28359 8.00147C0.271795 9.84288 0.425353 11.6816 0.742414 13.4956C0.870874 13.9746 1.12172 14.4119 1.4703 14.7646C1.81889 15.1173 2.25322 15.3733 2.73065 15.5074C4.51888 16.0015 11.5542 16.0015 11.5542 16.0015C14.5064 16.0369 17.4577 15.8797 20.3895 15.5309C20.8664 15.3982 21.3 15.1425 21.6469 14.7894C21.9938 14.4363 22.2417 13.9983 22.3659 13.5191C22.6903 11.706 22.8478 9.8669 22.8365 8.025C22.8608 6.17481 22.7032 4.32671 22.3659 2.50735ZM9.30712 11.425V4.57794L15.1895 8.00147L9.30712 11.425Z" fill="#88888C"/>
</g>
<defs>
<clipPath id="clip0_84_1266">
<rect width="22.5529" height="16" fill="white" transform="translate(0.282959 -0.00341797)"/>
</clipPath>
</defs>
</svg>
